<svg xmlns="http://www.w3.org/2000/svg" viewBox="0 0 500 500" width="500" height="500" preserveAspectRatio="xMidYMid meet" style="width: 100%; height: 100%; transform: translate3d(0px, 0px, 0px); content-visibility: visible;"><defs><clipPath id="__lottie_element_732"><rect width="500" height="500" x="0" y="0"></rect></clipPath><clipPath id="__lottie_element_739"><path d="M0,0 L500,0 L500,500 L0,500z"></path></clipPath><mask id="__lottie_element_742" mask-type="alpha"><g clip-path="url(#__lottie_element_743)" transform="matrix(1,0,0,1,0,0)" opacity="1" style="display: block;"><g clip-path="url(#__lottie_element_750)" transform="matrix(0.8999999761581421,0,0,0.8999999761581421,25,25)" opacity="1" style="display: block;"><g style="display: none;"><g><path stroke-linecap="round" stroke-linejoin="round" fill-opacity="0"></path></g></g><g style="display: none;"><g><path stroke-linecap="round" stroke-linejoin="round" fill-opacity="0"></path></g></g><g style="display: none;"><g><path stroke-linecap="round" stroke-linejoin="round" fill-opacity="0"></path></g></g><g style="display: none;"><g><path stroke-linecap="round" stroke-linejoin="round" fill-opacity="0"></path></g></g><g style="display: none;"><g><path stroke-linecap="round" stroke-linejoin="round" fill-opacity="0"></path></g></g><g style="display: none;"><g><path stroke-linecap="round" stroke-linejoin="round" fill-opacity="0"></path></g></g><g style="display: none;"><g><path stroke-linecap="round" stroke-linejoin="round" fill-opacity="0"></path></g></g><g transform="matrix(3.690000057220459,0,0,3.690000057220459,-217.48793029785156,249.997314453125)" opacity="1" style="display: block;"><g opacity="1" transform="matrix(1,0,0,1,0,0)"><path stroke-linecap="round" stroke-linejoin="round" fill-opacity="0" stroke="rgb(8,168,138)" stroke-opacity="1" stroke-width="3.5" d=" M126.66699981689453,50 C109.63800048828125,50 95.83300018310547,27.61400032043457 95.83300018310547,0 C95.83300018310547,-27.61400032043457 109.63800048828125,-50 126.66699981689453,-50"></path></g></g><g transform="matrix(3.690000057220459,0,0,3.690000057220459,-217.48793029785156,249.997314453125)" opacity="1" style="display: block;"><g opacity="1" transform="matrix(1,0,0,1,0,0)"><path stroke-linecap="round" stroke-linejoin="round" fill-opacity="0" stroke="rgb(8,168,138)" stroke-opacity="1" stroke-width="3.5" d=" M126.66699981689453,50 C126.75,41.25 126.83300018310547,27.61400032043457 126.83300018310547,0 C126.83300018310547,-27.61400032043457 126.75,-34.25 126.66699981689453,-50"></path></g></g><g transform="matrix(3.690000057220459,0,0,3.690000057220459,-217.48793029785156,249.997314453125)" opacity="1" style="display: block;"><g opacity="1" transform="matrix(1,0,0,1,0,0)"><path stroke-linecap="round" stroke-linejoin="round" fill-opacity="0" stroke="rgb(8,168,138)" stroke-opacity="1" stroke-width="3.5" d=" M126.66699981689453,50 C144.2480010986328,50 158.5,27.61400032043457 158.5,0 C158.5,-27.61400032043457 144.2480010986328,-50 126.66699981689453,-50"></path></g></g><g transform="matrix(3.690000057220459,0,0,3.690000057220459,-217.48793029785156,249.997314453125)" opacity="1" style="display: block;"><g opacity="1" transform="matrix(1,0,0,1,0,0)"><path stroke-linecap="round" stroke-linejoin="round" fill-opacity="0" stroke="rgb(8,168,138)" stroke-opacity="1" stroke-width="3.5" d=" M76.66699981689453,0 C76.66699981689453,0 176.66700744628906,0 176.66700744628906,0"></path></g></g><g transform="matrix(3.690000057220459,0,0,3.690000057220459,-217.48423767089844,249.997314453125)" opacity="1" style="display: block;"><g opacity="1" transform="matrix(1,0,0,1,0,0)"><path stroke-linecap="round" stroke-linejoin="round" fill-opacity="0" stroke="rgb(8,168,138)" stroke-opacity="1" stroke-width="3.5" d=" M158.9929962158203,-38.13800048828125 C150.2830047607422,-33.577999114990234 139.0030059814453,-30.827999114990234 126.6729965209961,-30.827999114990234 C114.34300231933594,-30.827999114990234 103.06300354003906,-33.577999114990234 94.34300231933594,-38.13800048828125"></path></g></g><g transform="matrix(3.690000057220459,0,0,3.690000057220459,-217.48423767089844,249.997314453125)" opacity="1" style="display: block;"><g opacity="1" transform="matrix(1,0,0,1,0,0)"><path stroke-linecap="round" stroke-linejoin="round" fill-opacity="0" stroke="rgb(8,168,138)" stroke-opacity="1" stroke-width="3.5" d=" M94.34300231933594,38.13999938964844 C103.0530014038086,33.58000183105469 114.33300018310547,30.829999923706055 126.66300201416016,30.829999923706055 C138.9929962158203,30.829999923706055 150.2729949951172,33.58000183105469 158.9929962158203,38.13999938964844"></path></g></g></g><g transform="matrix(3.321000099182129,0,0,3.321000099182129,-170.7361297607422,250)" opacity="1" style="display: block;"><g opacity="1" transform="matrix(1,0,0,1,0,0)"><path stroke-linecap="round" stroke-linejoin="round" fill-opacity="0" stroke="rgb(18,19,49)" stroke-opacity="1" stroke-width="3.5" d=" M176.66700744628906,0 C176.66700744628906,27.61400032043457 154.281005859375,50 126.66699981689453,50 C99.0530014038086,50 76.66699981689453,27.61400032043457 76.66699981689453,0 C76.66699981689453,-27.61400032043457 99.0530014038086,-50 126.66699981689453,-50 C154.281005859375,-50 176.66700744628906,-27.61400032043457 176.66700744628906,0z"></path></g></g></g></mask><clipPath id="__lottie_element_743"><path d="M0,0 L500,0 L500,500 L0,500z"></path></clipPath><clipPath id="__lottie_element_750"><path d="M0,0 L500,0 L500,500 L0,500z"></path></clipPath><filter id="__lottie_element_795" x="-100%" y="-100%" width="300%" height="300%"><feGaussianBlur result="filter_result_0" stdDeviation="52.5 52.5" edgeMode="wrap"></feGaussianBlur></filter><clipPath id="__lottie_element_797"><path d="M0,0 L500,0 L500,500 L0,500z"></path></clipPath><mask id="__lottie_element_800" mask-type="alpha"><g clip-path="url(#__lottie_element_801)" transform="matrix(1,0,0,1,0,0)" opacity="1" style="display: block;"><g clip-path="url(#__lottie_element_806)" transform="matrix(0.8999999761581421,0,0,0.8999999761581421,25,25)" opacity="1" style="display: block;"><g style="display: none;"><g><path stroke-linecap="round" stroke-linejoin="round" fill-opacity="0"></path></g></g><g style="display: none;"><g><path stroke-linecap="round" stroke-linejoin="round" fill-opacity="0"></path></g></g><g style="display: none;"><g><path stroke-linecap="round" stroke-linejoin="round" fill-opacity="0"></path></g></g><g style="display: none;"><g><path stroke-linecap="round" stroke-linejoin="round" fill-opacity="0"></path></g></g><g style="display: none;"><g><path stroke-linecap="round" stroke-linejoin="round" fill-opacity="0"></path></g></g><g style="display: none;"><g><path stroke-linecap="round" stroke-linejoin="round" fill-opacity="0"></path></g></g><g style="display: none;"><g><path stroke-linecap="round" stroke-linejoin="round" fill-opacity="0"></path></g></g><g transform="matrix(3.690000057220459,0,0,3.690000057220459,-217.48793029785156,249.997314453125)" opacity="1" style="display: block;"><g opacity="1" transform="matrix(1,0,0,1,0,0)"><path stroke-linecap="round" stroke-linejoin="round" fill-opacity="0" stroke="rgb(8,168,138)" stroke-opacity="1" stroke-width="3.5" d=" M126.66699981689453,50 C109.63800048828125,50 95.83300018310547,27.61400032043457 95.83300018310547,0 C95.83300018310547,-27.61400032043457 109.63800048828125,-50 126.66699981689453,-50"></path></g></g><g transform="matrix(3.690000057220459,0,0,3.690000057220459,-217.48793029785156,249.997314453125)" opacity="1" style="display: block;"><g opacity="1" transform="matrix(1,0,0,1,0,0)"><path stroke-linecap="round" stroke-linejoin="round" fill-opacity="0" stroke="rgb(8,168,138)" stroke-opacity="1" stroke-width="3.5" d=" M126.66699981689453,50 C126.75,41.25 126.83300018310547,27.61400032043457 126.83300018310547,0 C126.83300018310547,-27.61400032043457 126.75,-34.25 126.66699981689453,-50"></path></g></g><g transform="matrix(3.690000057220459,0,0,3.690000057220459,-217.48793029785156,249.997314453125)" opacity="1" style="display: block;"><g opacity="1" transform="matrix(1,0,0,1,0,0)"><path stroke-linecap="round" stroke-linejoin="round" fill-opacity="0" stroke="rgb(8,168,138)" stroke-opacity="1" stroke-width="3.5" d=" M126.66699981689453,50 C144.2480010986328,50 158.5,27.61400032043457 158.5,0 C158.5,-27.61400032043457 144.2480010986328,-50 126.66699981689453,-50"></path></g></g><g transform="matrix(3.690000057220459,0,0,3.690000057220459,-217.48793029785156,249.997314453125)" opacity="1" style="display: block;"><g opacity="1" transform="matrix(1,0,0,1,0,0)"><path stroke-linecap="round" stroke-linejoin="round" fill-opacity="0" stroke="rgb(8,168,138)" stroke-opacity="1" stroke-width="3.5" d=" M76.66699981689453,0 C76.66699981689453,0 127.10800170898438,0 127.10800170898438,0 C127.10800170898438,0 176.66700744628906,0 176.66700744628906,0"></path></g></g><g transform="matrix(3.690000057220459,0,0,3.690000057220459,-217.48423767089844,249.997314453125)" opacity="1" style="display: block;"><g opacity="1" transform="matrix(1,0,0,1,0,0)"><path stroke-linecap="round" stroke-linejoin="round" fill-opacity="0" stroke="rgb(8,168,138)" stroke-opacity="1" stroke-width="3.5" d=" M158.9929962158203,-38.13800048828125 C150.2830047607422,-33.577999114990234 139.0030059814453,-30.827999114990234 126.6729965209961,-30.827999114990234 C114.34300231933594,-30.827999114990234 103.06300354003906,-33.577999114990234 94.34300231933594,-38.13800048828125"></path></g></g><g transform="matrix(3.690000057220459,0,0,3.690000057220459,-217.48423767089844,249.997314453125)" opacity="1" style="display: block;"><g opacity="1" transform="matrix(1,0,0,1,0,0)"><path stroke-linecap="round" stroke-linejoin="round" fill-opacity="0" stroke="rgb(8,168,138)" stroke-opacity="1" stroke-width="3.5" d=" M94.34300231933594,38.13999938964844 C103.0530014038086,33.58000183105469 114.33300018310547,30.829999923706055 126.66300201416016,30.829999923706055 C138.9929962158203,30.829999923706055 150.2729949951172,33.58000183105469 158.9929962158203,38.13999938964844"></path></g></g></g><g transform="matrix(3.32099986076355,0,0,3.32099986076355,-170.73580932617188,250)" opacity="1" style="display: block;"><g opacity="1" transform="matrix(1,0,0,1,0,0)"><path stroke-linecap="round" stroke-linejoin="round" fill-opacity="0" stroke="rgb(18,19,49)" stroke-opacity="1" stroke-width="3.5" d=" M176.66700744628906,0 C176.66700744628906,27.61400032043457 154.281005859375,50 126.66699981689453,50 C99.0530014038086,50 76.66699981689453,27.61400032043457 76.66699981689453,0 C76.66699981689453,-27.61400032043457 99.0530014038086,-50 126.66699981689453,-50 C154.281005859375,-50 176.66700744628906,-27.61400032043457 176.66700744628906,0z"></path></g></g></g></mask><clipPath id="__lottie_element_801"><path d="M0,0 L500,0 L500,500 L0,500z"></path></clipPath><clipPath id="__lottie_element_806"><path d="M0,0 L500,0 L500,500 L0,500z"></path></clipPath><filter id="__lottie_element_853" x="-100%" y="-100%" width="300%" height="300%"><feGaussianBlur result="filter_result_0" stdDeviation="52.5 52.5" edgeMode="wrap"></feGaussianBlur></filter><clipPath id="__lottie_element_855"><path d="M0,0 L500,0 L500,500 L0,500z"></path></clipPath><mask id="__lottie_element_858" mask-type="alpha"><g clip-path="url(#__lottie_element_859)" transform="matrix(1,0,0,1,0,0)" opacity="1" style="display: block;"><g clip-path="url(#__lottie_element_866)" transform="matrix(0.8999999761581421,0,0,0.8999999761581421,25,25)" opacity="1" style="display: block;"><g style="display: none;"><g><path stroke-linecap="round" stroke-linejoin="round" fill-opacity="0"></path></g></g><g style="display: none;"><g><path stroke-linecap="round" stroke-linejoin="round" fill-opacity="0"></path></g></g><g style="display: none;"><g><path stroke-linecap="round" stroke-linejoin="round" fill-opacity="0"></path></g></g><g style="display: none;"><g><path stroke-linecap="round" stroke-linejoin="round" fill-opacity="0"></path></g></g><g style="display: none;"><g><path stroke-linecap="round" stroke-linejoin="round" fill-opacity="0"></path></g></g><g style="display: none;"><g><path stroke-linecap="round" stroke-linejoin="round" fill-opacity="0"></path></g></g><g style="display: none;"><g><path stroke-linecap="round" stroke-linejoin="round" fill-opacity="0"></path></g></g><g transform="matrix(3.690000057220459,0,0,3.690000057220459,-217.48793029785156,249.997314453125)" opacity="1" style="display: block;"><g opacity="1" transform="matrix(1,0,0,1,0,0)"><path stroke-linecap="round" stroke-linejoin="round" fill-opacity="0" stroke="rgb(8,168,138)" stroke-opacity="1" stroke-width="3.5" d=" M126.66699981689453,50 C109.63800048828125,50 95.83300018310547,27.61400032043457 95.83300018310547,0 C95.83300018310547,-27.61400032043457 109.63800048828125,-50 126.66699981689453,-50"></path></g></g><g transform="matrix(3.690000057220459,0,0,3.690000057220459,-217.48793029785156,249.997314453125)" opacity="1" style="display: block;"><g opacity="1" transform="matrix(1,0,0,1,0,0)"><path stroke-linecap="round" stroke-linejoin="round" fill-opacity="0" stroke="rgb(8,168,138)" stroke-opacity="1" stroke-width="3.5" d=" M126.66699981689453,50 C126.75,41.25 126.83300018310547,27.61400032043457 126.83300018310547,0 C126.83300018310547,-27.61400032043457 126.75,-34.25 126.66699981689453,-50"></path></g></g><g transform="matrix(3.690000057220459,0,0,3.690000057220459,-217.48793029785156,249.997314453125)" opacity="1" style="display: block;"><g opacity="1" transform="matrix(1,0,0,1,0,0)"><path stroke-linecap="round" stroke-linejoin="round" fill-opacity="0" stroke="rgb(8,168,138)" stroke-opacity="1" stroke-width="3.5" d=" M126.66699981689453,50 C144.2480010986328,50 158.5,27.61400032043457 158.5,0 C158.5,-27.61400032043457 144.2480010986328,-50 126.66699981689453,-50"></path></g></g><g transform="matrix(3.690000057220459,0,0,3.690000057220459,-217.48793029785156,249.997314453125)" opacity="1" style="display: block;"><g opacity="1" transform="matrix(1,0,0,1,0,0)"><path stroke-linecap="round" stroke-linejoin="round" fill-opacity="0" stroke="rgb(8,168,138)" stroke-opacity="1" stroke-width="3.5" d=" M76.66699981689453,0 C76.66699981689453,0 176.66700744628906,0 176.66700744628906,0"></path></g></g><g transform="matrix(3.690000057220459,0,0,3.690000057220459,-217.48423767089844,249.997314453125)" opacity="1" style="display: block;"><g opacity="1" transform="matrix(1,0,0,1,0,0)"><path stroke-linecap="round" stroke-linejoin="round" fill-opacity="0" stroke="rgb(8,168,138)" stroke-opacity="1" stroke-width="3.5" d=" M158.9929962158203,-38.13800048828125 C150.2830047607422,-33.577999114990234 139.0030059814453,-30.827999114990234 126.6729965209961,-30.827999114990234 C114.34300231933594,-30.827999114990234 103.06300354003906,-33.577999114990234 94.34300231933594,-38.13800048828125"></path></g></g><g transform="matrix(3.690000057220459,0,0,3.690000057220459,-217.48423767089844,249.997314453125)" opacity="1" style="display: block;"><g opacity="1" transform="matrix(1,0,0,1,0,0)"><path stroke-linecap="round" stroke-linejoin="round" fill-opacity="0" stroke="rgb(8,168,138)" stroke-opacity="1" stroke-width="3.5" d=" M94.34300231933594,38.13999938964844 C103.0530014038086,33.58000183105469 114.33300018310547,30.829999923706055 126.66300201416016,30.829999923706055 C138.9929962158203,30.829999923706055 150.2729949951172,33.58000183105469 158.9929962158203,38.13999938964844"></path></g></g></g><g transform="matrix(3.321000099182129,0,0,3.321000099182129,-170.7361297607422,250)" opacity="1" style="display: block;"><g opacity="1" transform="matrix(1,0,0,1,0,0)"><path stroke-linecap="round" stroke-linejoin="round" fill-opacity="0" stroke="rgb(18,19,49)" stroke-opacity="1" stroke-width="3.5" d=" M176.66700744628906,0 C176.66700744628906,27.61400032043457 154.281005859375,50 126.66699981689453,50 C99.0530014038086,50 76.66699981689453,27.61400032043457 76.66699981689453,0 C76.66699981689453,-27.61400032043457 99.0530014038086,-50 126.66699981689453,-50 C154.281005859375,-50 176.66700744628906,-27.61400032043457 176.66700744628906,0z"></path></g></g></g></mask><clipPath id="__lottie_element_859"><path d="M0,0 L500,0 L500,500 L0,500z"></path></clipPath><clipPath id="__lottie_element_866"><path d="M0,0 L500,0 L500,500 L0,500z"></path></clipPath><filter id="__lottie_element_911" x="-100%" y="-100%" width="300%" height="300%"><feGaussianBlur result="filter_result_0" stdDeviation="52.5 52.5" edgeMode="wrap"></feGaussianBlur></filter></defs><g clip-path="url(#__lottie_element_732)"><g clip-path="url(#__lottie_element_855)" transform="matrix(1.111109972000122,0,0,1.111109972000122,-27.777496337890625,-27.777496337890625)" opacity="0" style="display: block;"><g mask="url(#__lottie_element_858)" style="display: block;"><g filter="url(#__lottie_element_911)" transform="matrix(-0.1674155443906784,-2.3941538333892822,2.3941538333892822,-0.1674155443906784,271.9410095214844,270.4599914550781)" opacity="1"><g class="design" opacity="1" transform="matrix(1,0,0,1,0,0)"><path fill="rgb(74,224,235)" fill-opacity="1" d=" M0,-250 C137.97500610351562,-250 250,-137.97500610351562 250,0 C250,137.97500610351562 137.97500610351562,250 0,250 C-137.97500610351562,250 -250,137.97500610351562 -250,0 C-250,-137.97500610351562 -137.97500610351562,-250 0,-250z"></path></g><g class="design" opacity="1" transform="matrix(1,0,0,1,113.24199676513672,-118.88400268554688)"><path fill="rgb(202,94,237)" fill-opacity="1" d=" M0,-176.5 C97.47799682617188,-176.5 176.5,-97.47799682617188 176.5,0 C176.5,97.47799682617188 97.47799682617188,176.5 0,176.5 C-43.948001861572266,176.5 -74.39600372314453,142.4429931640625 -105.29000091552734,115.86900329589844 C-142.92100524902344,83.5 -176.5,53.53099822998047 -176.5,0 C-176.5,-97.47799682617188 -97.47799682617188,-176.5 0,-176.5z"></path></g></g></g></g><g clip-path="url(#__lottie_element_797)" transform="matrix(1.111109972000122,0,0,1.111109972000122,-27.777496337890625,-27.777496337890625)" opacity="0" style="display: block;"><g mask="url(#__lottie_element_800)" style="display: block;"><g filter="url(#__lottie_element_853)" transform="matrix(-0.1674155443906784,-2.3941538333892822,2.3941538333892822,-0.1674155443906784,271.9410095214844,270.4599914550781)" opacity="1"><g class="design" opacity="1" transform="matrix(1,0,0,1,0,0)"><path fill="rgb(74,224,235)" fill-opacity="1" d=" M0,-250 C137.97500610351562,-250 250,-137.97500610351562 250,0 C250,137.97500610351562 137.97500610351562,250 0,250 C-137.97500610351562,250 -250,137.97500610351562 -250,0 C-250,-137.97500610351562 -137.97500610351562,-250 0,-250z"></path></g><g class="design" opacity="1" transform="matrix(1,0,0,1,113.24199676513672,-118.88400268554688)"><path fill="rgb(202,94,237)" fill-opacity="1" d=" M0,-176.5 C97.47799682617188,-176.5 176.5,-97.47799682617188 176.5,0 C176.5,97.47799682617188 97.47799682617188,176.5 0,176.5 C-43.948001861572266,176.5 -74.39600372314453,142.4429931640625 -105.29000091552734,115.86900329589844 C-142.92100524902344,83.5 -176.5,53.53099822998047 -176.5,0 C-176.5,-97.47799682617188 -97.47799682617188,-176.5 0,-176.5z"></path></g></g></g></g><g clip-path="url(#__lottie_element_739)" transform="matrix(1.111109972000122,0,0,1.111109972000122,-27.777496337890625,-27.777496337890625)" opacity="1" style="display: block;"><g mask="url(#__lottie_element_742)" style="display: block;"><g filter="url(#__lottie_element_795)" transform="matrix(-0.1674155443906784,-2.3941538333892822,2.3941538333892822,-0.1674155443906784,271.9410095214844,270.4599914550781)" opacity="1"><g class="design" opacity="1" transform="matrix(1,0,0,1,0,0)"><path fill="rgb(74,224,235)" fill-opacity="1" d=" M0,-250 C137.97500610351562,-250 250,-137.97500610351562 250,0 C250,137.97500610351562 137.97500610351562,250 0,250 C-137.97500610351562,250 -250,137.97500610351562 -250,0 C-250,-137.97500610351562 -137.97500610351562,-250 0,-250z"></path></g><g class="design" opacity="1" transform="matrix(1,0,0,1,113.24199676513672,-118.88400268554688)"><path fill="rgb(202,94,237)" fill-opacity="1" d=" M0,-176.5 C97.47799682617188,-176.5 176.5,-97.47799682617188 176.5,0 C176.5,97.47799682617188 97.47799682617188,176.5 0,176.5 C-43.948001861572266,176.5 -74.39600372314453,142.4429931640625 -105.29000091552734,115.86900329589844 C-142.92100524902344,83.5 -176.5,53.53099822998047 -176.5,0 C-176.5,-97.47799682617188 -97.47799682617188,-176.5 0,-176.5z"></path></g></g></g></g><g style="display: none;"><path></path></g></g></svg>