<svg xmlns="http://www.w3.org/2000/svg" viewBox="0 0 500 500" width="500" height="500" preserveAspectRatio="xMidYMid meet" style="width: 100%; height: 100%; transform: translate3d(0px, 0px, 0px); content-visibility: visible;"><defs><clipPath id="__lottie_element_689"><rect width="500" height="500" x="0" y="0"></rect></clipPath><mask id="__lottie_element_695" mask-type="alpha"><g clip-path="url(#__lottie_element_696)" transform="matrix(1,0,0,1,0,0)" opacity="1" style="display: block;"><g transform="matrix(-4.5,0,0,-4.5,250,250)" opacity="1" style="display: block;"><g opacity="1" transform="matrix(1,0,0,1,0,0)"><path stroke-linecap="round" stroke-linejoin="round" fill-opacity="0" stroke="rgb(18,19,49)" stroke-opacity="1" stroke-width="3.5" d=" M-16.277999877929688,-36.54399871826172 C-11.303999900817871,-38.76499938964844 -5.795000076293945,-40 0,-40 C0,-40 0,-40 0,-40 C12.6899995803833,-40 24.007999420166016,-34.07699966430664 31.33799934387207,-24.847999572753906"></path></g></g><g transform="matrix(0,4.5,-4.5,0,209.22100830078125,429.72100830078125)" opacity="1" style="display: block;"><g opacity="1" transform="matrix(1,0,0,1,0,0)"><path stroke-linecap="round" stroke-linejoin="round" fill-opacity="0" stroke="rgb(18,19,49)" stroke-opacity="1" stroke-width="3.5" d=" M-16.437999725341797,11.713000297546387 C-16.437999725341797,11.713000297546387 -16.437999725341797,23.5 -16.437999725341797,23.5 C-16.437999725341797,23.5 -4.688000202178955,23.5 -4.688000202178955,23.5"></path></g></g><g transform="matrix(4.5,0,0,4.5,250,250)" opacity="1" style="display: block;"><g opacity="1" transform="matrix(1,0,0,1,0,0)"><path stroke-linecap="round" stroke-linejoin="round" fill-opacity="0" stroke="rgb(18,19,49)" stroke-opacity="1" stroke-width="3.5" d=" M-16.277999877929688,-36.54399871826172 C-11.303999900817871,-38.76499938964844 -5.795000076293945,-40 0,-40 C0,-40 0,-40 0,-40 C12.6899995803833,-40 24.007999420166016,-34.07699966430664 31.33799934387207,-24.847999572753906"></path></g></g><g transform="matrix(0,-4.5,4.5,0,290.77899169921875,70.27899932861328)" opacity="1" style="display: block;"><g opacity="1" transform="matrix(1,0,0,1,0,0)"><path stroke-linecap="round" stroke-linejoin="round" fill-opacity="0" stroke="rgb(18,19,49)" stroke-opacity="1" stroke-width="3.5" d=" M-16.437999725341797,11.713000297546387 C-16.437999725341797,11.713000297546387 -16.437999725341797,23.5 -16.437999725341797,23.5 C-16.437999725341797,23.5 -4.688000202178955,23.5 -4.688000202178955,23.5"></path></g></g><g transform="matrix(0,4.5,-4.5,0,250,250)" opacity="1" style="display: block;"><g opacity="1" transform="matrix(1,0,0,1,0,0)"><path stroke-linecap="round" stroke-linejoin="round" fill-opacity="0" stroke="rgb(18,19,49)" stroke-opacity="1" stroke-width="3.5" d=" M-16.277999877929688,-36.54399871826172 C-11.303999900817871,-38.76499938964844 -5.795000076293945,-40 0,-40 C0,-40 0,-40 0,-40 C12.6899995803833,-40 24.007999420166016,-34.07699966430664 31.33799934387207,-24.847999572753906"></path></g></g><g transform="matrix(4.5,0,0,4.5,429.72100830078125,290.77899169921875)" opacity="1" style="display: block;"><g opacity="1" transform="matrix(1,0,0,1,0,0)"><path stroke-linecap="round" stroke-linejoin="round" fill-opacity="0" stroke="rgb(18,19,49)" stroke-opacity="1" stroke-width="3.5" d=" M-16.437999725341797,11.713000297546387 C-16.437999725341797,11.713000297546387 -16.437999725341797,23.5 -16.437999725341797,23.5 C-16.437999725341797,23.5 -4.688000202178955,23.5 -4.688000202178955,23.5"></path></g></g><g transform="matrix(0,-4.5,4.5,0,250,250)" opacity="1" style="display: block;"><g opacity="1" transform="matrix(1,0,0,1,0,0)"><path stroke-linecap="round" stroke-linejoin="round" fill-opacity="0" stroke="rgb(18,19,49)" stroke-opacity="1" stroke-width="3.5" d=" M-16.277999877929688,-36.54399871826172 C-11.303999900817871,-38.76499938964844 -5.795000076293945,-40 0,-40 C0,-40 0,-40 0,-40 C12.6899995803833,-40 24.007999420166016,-34.07699966430664 31.33799934387207,-24.847999572753906"></path></g></g><g transform="matrix(-4.5,0,0,-4.5,70.27899932861328,209.22100830078125)" opacity="1" style="display: block;"><g opacity="1" transform="matrix(1,0,0,1,0,0)"><path stroke-linecap="round" stroke-linejoin="round" fill-opacity="0" stroke="rgb(18,19,49)" stroke-opacity="1" stroke-width="3.5" d=" M-16.437999725341797,11.713000297546387 C-16.437999725341797,11.713000297546387 -16.437999725341797,23.5 -16.437999725341797,23.5 C-16.437999725341797,23.5 -4.688000202178955,23.5 -4.688000202178955,23.5"></path></g></g></g></mask><clipPath id="__lottie_element_696"><path d="M0,0 L500,0 L500,500 L0,500z"></path></clipPath><filter id="__lottie_element_730" x="-100%" y="-100%" width="300%" height="300%"><feGaussianBlur result="filter_result_0" stdDeviation="52.5 52.5" edgeMode="wrap"></feGaussianBlur></filter></defs><g clip-path="url(#__lottie_element_689)"><g mask="url(#__lottie_element_695)" style="display: block;"><g filter="url(#__lottie_element_730)" transform="matrix(-0.1674155443906784,-2.3941538333892822,2.3941538333892822,-0.1674155443906784,271.9410095214844,270.4599914550781)" opacity="1"><g class="design" opacity="1" transform="matrix(1,0,0,1,0,0)"><path fill="rgb(74,224,235)" fill-opacity="1" d=" M0,-250 C137.97500610351562,-250 250,-137.97500610351562 250,0 C250,137.97500610351562 137.97500610351562,250 0,250 C-137.97500610351562,250 -250,137.97500610351562 -250,0 C-250,-137.97500610351562 -137.97500610351562,-250 0,-250z"></path></g><g class="design" opacity="1" transform="matrix(1,0,0,1,113.24199676513672,-118.88400268554688)"><path fill="rgb(202,94,237)" fill-opacity="1" d=" M0,-176.5 C97.47799682617188,-176.5 176.5,-97.47799682617188 176.5,0 C176.5,97.47799682617188 97.47799682617188,176.5 0,176.5 C-43.948001861572266,176.5 -74.39600372314453,142.4429931640625 -105.29000091552734,115.86900329589844 C-142.92100524902344,83.5 -176.5,53.53099822998047 -176.5,0 C-176.5,-97.47799682617188 -97.47799682617188,-176.5 0,-176.5z"></path></g></g></g><g style="display: none;"><path></path></g></g></svg>